<!--?xml version="1.0" encoding="utf-8"?-->
<!-- Generator: Adobe Illustrator 26.0.1, SVG Export Plug-In . SVG Version: 6.00 Build 0)  -->
<svg version="1.1" id="Layer_1" xmlns="http://www.w3.org/2000/svg" xmlns:xlink="http://www.w3.org/1999/xlink" x="0px" y="0px" viewBox="0 0 256.12 129.88" style="enable-background:new 0 0 256.12 129.88;" xml:space="preserve" width="256.1199951171875" height="129.8800048828125">
<style>

/***************************************************
 * Generated by SVG Artista on 10/15/2022, 5:54:45 AM
 * MIT license (https://opensource.org/licenses/MIT)
 * W. https://svgartista.net
 **************************************************/

@keyframes animate-svg-stroke-1 {
  0% {
    stroke-dashoffset: 146.11965942382812px;
    stroke-dasharray: 146.11965942382812px;
  }

  100% {
    stroke-dashoffset: 0;
    stroke-dasharray: 146.11965942382812px;
  }
}

@keyframes animate-svg-fill-1 {
  0% {
    fill: transparent;
  }

  100% {
    fill: rgb(220, 41, 145);
  }
}

.svg-elem-1 {
  animation: animate-svg-stroke-1 1s linear 0s both,
               animate-svg-fill-1 0.7s cubic-bezier(0.95, 0.05, 0.795, 0.035) 0.8s both;
}

@keyframes animate-svg-stroke-2 {
  0% {
    stroke-dashoffset: 111.43426513671875px;
    stroke-dasharray: 111.43426513671875px;
  }

  100% {
    stroke-dashoffset: 0;
    stroke-dasharray: 111.43426513671875px;
  }
}

@keyframes animate-svg-fill-2 {
  0% {
    fill: transparent;
  }

  100% {
    fill: rgb(106, 41, 144);
  }
}

.svg-elem-2 {
  animation: animate-svg-stroke-2 1s linear 0.12s both,
               animate-svg-fill-2 0.7s cubic-bezier(0.95, 0.05, 0.795, 0.035) 0.9s both;
}

@keyframes animate-svg-stroke-3 {
  0% {
    stroke-dashoffset: 85.5430908203125px;
    stroke-dasharray: 85.5430908203125px;
  }

  100% {
    stroke-dashoffset: 0;
    stroke-dasharray: 85.5430908203125px;
  }
}

@keyframes animate-svg-fill-3 {
  0% {
    fill: transparent;
  }

  100% {
    fill: rgb(8, 96, 168);
  }
}

.svg-elem-3 {
  animation: animate-svg-stroke-3 1s linear 0.24s both,
               animate-svg-fill-3 0.7s cubic-bezier(0.95, 0.05, 0.795, 0.035) 1s both;
}

@keyframes animate-svg-stroke-4 {
  0% {
    stroke-dashoffset: 63.289798736572266px;
    stroke-dasharray: 63.289798736572266px;
  }

  100% {
    stroke-dashoffset: 0;
    stroke-dasharray: 63.289798736572266px;
  }
}

@keyframes animate-svg-fill-4 {
  0% {
    fill: transparent;
  }

  100% {
    fill: rgb(103, 178, 211);
  }
}

.svg-elem-4 {
  animation: animate-svg-stroke-4 1s linear 0.36s both,
               animate-svg-fill-4 0.7s cubic-bezier(0.95, 0.05, 0.795, 0.035) 1.1s both;
}

@keyframes animate-svg-stroke-5 {
  0% {
    stroke-dashoffset: 78.49169921875px;
    stroke-dasharray: 78.49169921875px;
  }

  100% {
    stroke-dashoffset: 0;
    stroke-dasharray: 78.49169921875px;
  }
}

@keyframes animate-svg-fill-5 {
  0% {
    fill: transparent;
  }

  100% {
    fill: rgb(0, 0, 0);
  }
}

.svg-elem-5 {
  animation: animate-svg-stroke-5 1s linear 0.48s both,
               animate-svg-fill-5 0.7s cubic-bezier(0.95, 0.05, 0.795, 0.035) 1.2000000000000002s both;
}

@keyframes animate-svg-stroke-6 {
  0% {
    stroke-dashoffset: 54.8617057800293px;
    stroke-dasharray: 54.8617057800293px;
  }

  100% {
    stroke-dashoffset: 0;
    stroke-dasharray: 54.8617057800293px;
  }
}

@keyframes animate-svg-fill-6 {
  0% {
    fill: transparent;
  }

  100% {
    fill: rgb(0, 0, 0);
  }
}

.svg-elem-6 {
  animation: animate-svg-stroke-6 1s linear 0.6s both,
               animate-svg-fill-6 0.7s cubic-bezier(0.95, 0.05, 0.795, 0.035) 1.3s both;
}

@keyframes animate-svg-stroke-7 {
  0% {
    stroke-dashoffset: 84.87489318847656px;
    stroke-dasharray: 84.87489318847656px;
  }

  100% {
    stroke-dashoffset: 0;
    stroke-dasharray: 84.87489318847656px;
  }
}

@keyframes animate-svg-fill-7 {
  0% {
    fill: transparent;
  }

  100% {
    fill: rgb(0, 0, 0);
  }
}

.svg-elem-7 {
  animation: animate-svg-stroke-7 1s linear 0.72s both,
               animate-svg-fill-7 0.7s cubic-bezier(0.95, 0.05, 0.795, 0.035) 1.4000000000000001s both;
}

@keyframes animate-svg-stroke-8 {
  0% {
    stroke-dashoffset: 75.7043228149414px;
    stroke-dasharray: 75.7043228149414px;
  }

  100% {
    stroke-dashoffset: 0;
    stroke-dasharray: 75.7043228149414px;
  }
}

@keyframes animate-svg-fill-8 {
  0% {
    fill: transparent;
  }

  100% {
    fill: rgb(0, 0, 0);
  }
}

.svg-elem-8 {
  animation: animate-svg-stroke-8 1s linear 0.84s both,
               animate-svg-fill-8 0.7s cubic-bezier(0.95, 0.05, 0.795, 0.035) 1.5s both;
}

@keyframes animate-svg-stroke-9 {
  0% {
    stroke-dashoffset: 84.91320037841797px;
    stroke-dasharray: 84.91320037841797px;
  }

  100% {
    stroke-dashoffset: 0;
    stroke-dasharray: 84.91320037841797px;
  }
}

@keyframes animate-svg-fill-9 {
  0% {
    fill: transparent;
  }

  100% {
    fill: rgb(0, 0, 0);
  }
}

.svg-elem-9 {
  animation: animate-svg-stroke-9 1s linear 0.96s both,
               animate-svg-fill-9 0.7s cubic-bezier(0.95, 0.05, 0.795, 0.035) 1.6s both;
}

@keyframes animate-svg-stroke-10 {
  0% {
    stroke-dashoffset: 86.71685791015625px;
    stroke-dasharray: 86.71685791015625px;
  }

  100% {
    stroke-dashoffset: 0;
    stroke-dasharray: 86.71685791015625px;
  }
}

@keyframes animate-svg-fill-10 {
  0% {
    fill: transparent;
  }

  100% {
    fill: rgb(0, 0, 0);
  }
}

.svg-elem-10 {
  animation: animate-svg-stroke-10 1s linear 1.08s both,
               animate-svg-fill-10 0.7s cubic-bezier(0.95, 0.05, 0.795, 0.035) 1.7000000000000002s both;
}

@keyframes animate-svg-stroke-11 {
  0% {
    stroke-dashoffset: 65.50059509277344px;
    stroke-dasharray: 65.50059509277344px;
  }

  100% {
    stroke-dashoffset: 0;
    stroke-dasharray: 65.50059509277344px;
  }
}

@keyframes animate-svg-fill-11 {
  0% {
    fill: transparent;
  }

  100% {
    fill: rgb(0, 0, 0);
  }
}

.svg-elem-11 {
  animation: animate-svg-stroke-11 1s linear 1.2s both,
               animate-svg-fill-11 0.7s cubic-bezier(0.95, 0.05, 0.795, 0.035) 1.8s both;
}

@keyframes animate-svg-stroke-12 {
  0% {
    stroke-dashoffset: 81.1471176147461px;
    stroke-dasharray: 81.1471176147461px;
  }

  100% {
    stroke-dashoffset: 0;
    stroke-dasharray: 81.1471176147461px;
  }
}

@keyframes animate-svg-fill-12 {
  0% {
    fill: transparent;
  }

  100% {
    fill: rgb(0, 0, 0);
  }
}

.svg-elem-12 {
  animation: animate-svg-stroke-12 1s linear 1.3199999999999998s both,
               animate-svg-fill-12 0.7s cubic-bezier(0.95, 0.05, 0.795, 0.035) 1.9000000000000001s both;
}

@keyframes animate-svg-stroke-13 {
  0% {
    stroke-dashoffset: 54.868900299072266px;
    stroke-dasharray: 54.868900299072266px;
  }

  100% {
    stroke-dashoffset: 0;
    stroke-dasharray: 54.868900299072266px;
  }
}

@keyframes animate-svg-fill-13 {
  0% {
    fill: transparent;
  }

  100% {
    fill: rgb(0, 0, 0);
  }
}

.svg-elem-13 {
  animation: animate-svg-stroke-13 1s linear 1.44s both,
               animate-svg-fill-13 0.7s cubic-bezier(0.95, 0.05, 0.795, 0.035) 2s both;
}

@keyframes animate-svg-stroke-14 {
  0% {
    stroke-dashoffset: 89.3747787475586px;
    stroke-dasharray: 89.3747787475586px;
  }

  100% {
    stroke-dashoffset: 0;
    stroke-dasharray: 89.3747787475586px;
  }
}

@keyframes animate-svg-fill-14 {
  0% {
    fill: transparent;
  }

  100% {
    fill: rgb(0, 0, 0);
  }
}

.svg-elem-14 {
  animation: animate-svg-stroke-14 1s linear 1.56s both,
               animate-svg-fill-14 0.7s cubic-bezier(0.95, 0.05, 0.795, 0.035) 2.1s both;
}

@keyframes animate-svg-stroke-15 {
  0% {
    stroke-dashoffset: 160.45359802246094px;
    stroke-dasharray: 160.45359802246094px;
  }

  100% {
    stroke-dashoffset: 0;
    stroke-dasharray: 160.45359802246094px;
  }
}

@keyframes animate-svg-fill-15 {
  0% {
    fill: transparent;
  }

  100% {
    fill: rgb(0, 0, 0);
  }
}

.svg-elem-15 {
  animation: animate-svg-stroke-15 1s linear 1.68s both,
               animate-svg-fill-15 0.7s cubic-bezier(0.95, 0.05, 0.795, 0.035) 2.2s both;
}

@keyframes animate-svg-stroke-16 {
  0% {
    stroke-dashoffset: 96.81836700439453px;
    stroke-dasharray: 96.81836700439453px;
  }

  100% {
    stroke-dashoffset: 0;
    stroke-dasharray: 96.81836700439453px;
  }
}

@keyframes animate-svg-fill-16 {
  0% {
    fill: transparent;
  }

  100% {
    fill: rgb(0, 0, 0);
  }
}

.svg-elem-16 {
  animation: animate-svg-stroke-16 1s linear 1.7999999999999998s both,
               animate-svg-fill-16 0.7s cubic-bezier(0.95, 0.05, 0.795, 0.035) 2.3s both;
}

@keyframes animate-svg-stroke-17 {
  0% {
    stroke-dashoffset: 108.40538024902344px;
    stroke-dasharray: 108.40538024902344px;
  }

  100% {
    stroke-dashoffset: 0;
    stroke-dasharray: 108.40538024902344px;
  }
}

@keyframes animate-svg-fill-17 {
  0% {
    fill: transparent;
  }

  100% {
    fill: rgb(0, 0, 0);
  }
}

.svg-elem-17 {
  animation: animate-svg-stroke-17 1s linear 1.92s both,
               animate-svg-fill-17 0.7s cubic-bezier(0.95, 0.05, 0.795, 0.035) 2.4000000000000004s both;
}

@keyframes animate-svg-stroke-18 {
  0% {
    stroke-dashoffset: 52.47178649902344px;
    stroke-dasharray: 52.47178649902344px;
  }

  100% {
    stroke-dashoffset: 0;
    stroke-dasharray: 52.47178649902344px;
  }
}

@keyframes animate-svg-fill-18 {
  0% {
    fill: transparent;
  }

  100% {
    fill: rgb(0, 0, 0);
  }
}

.svg-elem-18 {
  animation: animate-svg-stroke-18 1s linear 2.04s both,
               animate-svg-fill-18 0.7s cubic-bezier(0.95, 0.05, 0.795, 0.035) 2.5s both;
}

@keyframes animate-svg-stroke-19 {
  0% {
    stroke-dashoffset: 66.59992980957031px;
    stroke-dasharray: 66.59992980957031px;
  }

  100% {
    stroke-dashoffset: 0;
    stroke-dasharray: 66.59992980957031px;
  }
}

@keyframes animate-svg-fill-19 {
  0% {
    fill: transparent;
  }

  100% {
    fill: rgb(0, 0, 0);
  }
}

.svg-elem-19 {
  animation: animate-svg-stroke-19 1s linear 2.16s both,
               animate-svg-fill-19 0.7s cubic-bezier(0.95, 0.05, 0.795, 0.035) 2.6s both;
}

@keyframes animate-svg-stroke-20 {
  0% {
    stroke-dashoffset: 52.511688232421875px;
    stroke-dasharray: 52.511688232421875px;
  }

  100% {
    stroke-dashoffset: 0;
    stroke-dasharray: 52.511688232421875px;
  }
}

@keyframes animate-svg-fill-20 {
  0% {
    fill: transparent;
  }

  100% {
    fill: rgb(0, 0, 0);
  }
}

.svg-elem-20 {
  animation: animate-svg-stroke-20 1s linear 2.28s both,
               animate-svg-fill-20 0.7s cubic-bezier(0.95, 0.05, 0.795, 0.035) 2.7s both;
}

@keyframes animate-svg-stroke-21 {
  0% {
    stroke-dashoffset: 67.83648681640625px;
    stroke-dasharray: 67.83648681640625px;
  }

  100% {
    stroke-dashoffset: 0;
    stroke-dasharray: 67.83648681640625px;
  }
}

@keyframes animate-svg-fill-21 {
  0% {
    fill: transparent;
  }

  100% {
    fill: rgb(0, 0, 0);
  }
}

.svg-elem-21 {
  animation: animate-svg-stroke-21 1s linear 2.4s both,
               animate-svg-fill-21 0.7s cubic-bezier(0.95, 0.05, 0.795, 0.035) 2.8s both;
}

@keyframes animate-svg-stroke-22 {
  0% {
    stroke-dashoffset: 98.92961120605469px;
    stroke-dasharray: 98.92961120605469px;
  }

  100% {
    stroke-dashoffset: 0;
    stroke-dasharray: 98.92961120605469px;
  }
}

@keyframes animate-svg-fill-22 {
  0% {
    fill: transparent;
  }

  100% {
    fill: rgb(0, 0, 0);
  }
}

.svg-elem-22 {
  animation: animate-svg-stroke-22 1s linear 2.52s both,
               animate-svg-fill-22 0.7s cubic-bezier(0.95, 0.05, 0.795, 0.035) 2.9000000000000004s both;
}

@keyframes animate-svg-stroke-23 {
  0% {
    stroke-dashoffset: 74.82687377929688px;
    stroke-dasharray: 74.82687377929688px;
  }

  100% {
    stroke-dashoffset: 0;
    stroke-dasharray: 74.82687377929688px;
  }
}

@keyframes animate-svg-fill-23 {
  0% {
    fill: transparent;
  }

  100% {
    fill: rgb(0, 0, 0);
  }
}

.svg-elem-23 {
  animation: animate-svg-stroke-23 1s linear 2.6399999999999997s both,
               animate-svg-fill-23 0.7s cubic-bezier(0.95, 0.05, 0.795, 0.035) 3s both;
}

@keyframes animate-svg-stroke-24 {
  0% {
    stroke-dashoffset: 73.72071838378906px;
    stroke-dasharray: 73.72071838378906px;
  }

  100% {
    stroke-dashoffset: 0;
    stroke-dasharray: 73.72071838378906px;
  }
}

@keyframes animate-svg-fill-24 {
  0% {
    fill: transparent;
  }

  100% {
    fill: rgb(0, 0, 0);
  }
}

.svg-elem-24 {
  animation: animate-svg-stroke-24 1s linear 2.76s both,
               animate-svg-fill-24 0.7s cubic-bezier(0.95, 0.05, 0.795, 0.035) 3.1000000000000005s both;
}

@keyframes animate-svg-stroke-25 {
  0% {
    stroke-dashoffset: 61.403770446777344px;
    stroke-dasharray: 61.403770446777344px;
  }

  100% {
    stroke-dashoffset: 0;
    stroke-dasharray: 61.403770446777344px;
  }
}

@keyframes animate-svg-fill-25 {
  0% {
    fill: transparent;
  }

  100% {
    fill: rgb(0, 0, 0);
  }
}

.svg-elem-25 {
  animation: animate-svg-stroke-25 1s linear 2.88s both,
               animate-svg-fill-25 0.7s cubic-bezier(0.95, 0.05, 0.795, 0.035) 3.2s both;
}

@keyframes animate-svg-stroke-26 {
  0% {
    stroke-dashoffset: 49.20431137084961px;
    stroke-dasharray: 49.20431137084961px;
  }

  100% {
    stroke-dashoffset: 0;
    stroke-dasharray: 49.20431137084961px;
  }
}

@keyframes animate-svg-fill-26 {
  0% {
    fill: transparent;
  }

  100% {
    fill: rgb(0, 0, 0);
  }
}

.svg-elem-26 {
  animation: animate-svg-stroke-26 1s linear 3s both,
               animate-svg-fill-26 0.7s cubic-bezier(0.95, 0.05, 0.795, 0.035) 3.3s both;
}

@keyframes animate-svg-stroke-27 {
  0% {
    stroke-dashoffset: 49.20431900024414px;
    stroke-dasharray: 49.20431900024414px;
  }

  100% {
    stroke-dashoffset: 0;
    stroke-dasharray: 49.20431900024414px;
  }
}

@keyframes animate-svg-fill-27 {
  0% {
    fill: transparent;
  }

  100% {
    fill: rgb(0, 0, 0);
  }
}

.svg-elem-27 {
  animation: animate-svg-stroke-27 1s linear 3.12s both,
               animate-svg-fill-27 0.7s cubic-bezier(0.95, 0.05, 0.795, 0.035) 3.4000000000000004s both;
}

@keyframes animate-svg-stroke-28 {
  0% {
    stroke-dashoffset: 61.40296936035156px;
    stroke-dasharray: 61.40296936035156px;
  }

  100% {
    stroke-dashoffset: 0;
    stroke-dasharray: 61.40296936035156px;
  }
}

@keyframes animate-svg-fill-28 {
  0% {
    fill: transparent;
  }

  100% {
    fill: rgb(0, 0, 0);
  }
}

.svg-elem-28 {
  animation: animate-svg-stroke-28 1s linear 3.2399999999999998s both,
               animate-svg-fill-28 0.7s cubic-bezier(0.95, 0.05, 0.795, 0.035) 3.5s both;
}

@keyframes animate-svg-stroke-29 {
  0% {
    stroke-dashoffset: 36.91770553588867px;
    stroke-dasharray: 36.91770553588867px;
  }

  100% {
    stroke-dashoffset: 0;
    stroke-dasharray: 36.91770553588867px;
  }
}

@keyframes animate-svg-fill-29 {
  0% {
    fill: transparent;
  }

  100% {
    fill: rgb(0, 0, 0);
  }
}

.svg-elem-29 {
  animation: animate-svg-stroke-29 1s linear 3.36s both,
               animate-svg-fill-29 0.7s cubic-bezier(0.95, 0.05, 0.795, 0.035) 3.6000000000000005s both;
}

@keyframes animate-svg-stroke-30 {
  0% {
    stroke-dashoffset: 41.774295806884766px;
    stroke-dasharray: 41.774295806884766px;
  }

  100% {
    stroke-dashoffset: 0;
    stroke-dasharray: 41.774295806884766px;
  }
}

@keyframes animate-svg-fill-30 {
  0% {
    fill: transparent;
  }

  100% {
    fill: rgb(0, 0, 0);
  }
}

.svg-elem-30 {
  animation: animate-svg-stroke-30 1s linear 3.48s both,
               animate-svg-fill-30 0.7s cubic-bezier(0.95, 0.05, 0.795, 0.035) 3.7s both;
}

@keyframes animate-svg-stroke-31 {
  0% {
    stroke-dashoffset: 35.72602462768555px;
    stroke-dasharray: 35.72602462768555px;
  }

  100% {
    stroke-dashoffset: 0;
    stroke-dasharray: 35.72602462768555px;
  }
}

@keyframes animate-svg-fill-31 {
  0% {
    fill: transparent;
  }

  100% {
    fill: rgb(0, 0, 0);
  }
}

.svg-elem-31 {
  animation: animate-svg-stroke-31 1s linear 3.5999999999999996s both,
               animate-svg-fill-31 0.7s cubic-bezier(0.95, 0.05, 0.795, 0.035) 3.8s both;
}

@keyframes animate-svg-stroke-32 {
  0% {
    stroke-dashoffset: 72.5134048461914px;
    stroke-dasharray: 72.5134048461914px;
  }

  100% {
    stroke-dashoffset: 0;
    stroke-dasharray: 72.5134048461914px;
  }
}

@keyframes animate-svg-fill-32 {
  0% {
    fill: transparent;
  }

  100% {
    fill: rgb(0, 0, 0);
  }
}

.svg-elem-32 {
  animation: animate-svg-stroke-32 1s linear 3.7199999999999998s both,
               animate-svg-fill-32 0.7s cubic-bezier(0.95, 0.05, 0.795, 0.035) 3.9000000000000004s both;
}

@keyframes animate-svg-stroke-33 {
  0% {
    stroke-dashoffset: 61.404170989990234px;
    stroke-dasharray: 61.404170989990234px;
  }

  100% {
    stroke-dashoffset: 0;
    stroke-dasharray: 61.404170989990234px;
  }
}

@keyframes animate-svg-fill-33 {
  0% {
    fill: transparent;
  }

  100% {
    fill: rgb(0, 0, 0);
  }
}

.svg-elem-33 {
  animation: animate-svg-stroke-33 1s linear 3.84s both,
               animate-svg-fill-33 0.7s cubic-bezier(0.95, 0.05, 0.795, 0.035) 4s both;
}

@keyframes animate-svg-stroke-34 {
  0% {
    stroke-dashoffset: 51.46902847290039px;
    stroke-dasharray: 51.46902847290039px;
  }

  100% {
    stroke-dashoffset: 0;
    stroke-dasharray: 51.46902847290039px;
  }
}

@keyframes animate-svg-fill-34 {
  0% {
    fill: transparent;
  }

  100% {
    fill: rgb(0, 0, 0);
  }
}

.svg-elem-34 {
  animation: animate-svg-stroke-34 1s linear 3.96s both,
               animate-svg-fill-34 0.7s cubic-bezier(0.95, 0.05, 0.795, 0.035) 4.1000000000000005s both;
}

@keyframes animate-svg-stroke-35 {
  0% {
    stroke-dashoffset: 49.20431900024414px;
    stroke-dasharray: 49.20431900024414px;
  }

  100% {
    stroke-dashoffset: 0;
    stroke-dasharray: 49.20431900024414px;
  }
}

@keyframes animate-svg-fill-35 {
  0% {
    fill: transparent;
  }

  100% {
    fill: rgb(0, 0, 0);
  }
}

.svg-elem-35 {
  animation: animate-svg-stroke-35 1s linear 4.08s both,
               animate-svg-fill-35 0.7s cubic-bezier(0.95, 0.05, 0.795, 0.035) 4.2s both;
}

@keyframes animate-svg-stroke-36 {
  0% {
    stroke-dashoffset: 67.71304321289062px;
    stroke-dasharray: 67.71304321289062px;
  }

  100% {
    stroke-dashoffset: 0;
    stroke-dasharray: 67.71304321289062px;
  }
}

@keyframes animate-svg-fill-36 {
  0% {
    fill: transparent;
  }

  100% {
    fill: rgb(0, 0, 0);
  }
}

.svg-elem-36 {
  animation: animate-svg-stroke-36 1s linear 4.2s both,
               animate-svg-fill-36 0.7s cubic-bezier(0.95, 0.05, 0.795, 0.035) 4.3s both;
}

@keyframes animate-svg-stroke-37 {
  0% {
    stroke-dashoffset: 36.91770553588867px;
    stroke-dasharray: 36.91770553588867px;
  }

  100% {
    stroke-dashoffset: 0;
    stroke-dasharray: 36.91770553588867px;
  }
}

@keyframes animate-svg-fill-37 {
  0% {
    fill: transparent;
  }

  100% {
    fill: rgb(0, 0, 0);
  }
}

.svg-elem-37 {
  animation: animate-svg-stroke-37 1s linear 4.32s both,
               animate-svg-fill-37 0.7s cubic-bezier(0.95, 0.05, 0.795, 0.035) 4.4s both;
}

@keyframes animate-svg-stroke-38 {
  0% {
    stroke-dashoffset: 49.20431900024414px;
    stroke-dasharray: 49.20431900024414px;
  }

  100% {
    stroke-dashoffset: 0;
    stroke-dasharray: 49.20431900024414px;
  }
}

@keyframes animate-svg-fill-38 {
  0% {
    fill: transparent;
  }

  100% {
    fill: rgb(0, 0, 0);
  }
}

.svg-elem-38 {
  animation: animate-svg-stroke-38 1s linear 4.4399999999999995s both,
               animate-svg-fill-38 0.7s cubic-bezier(0.95, 0.05, 0.795, 0.035) 4.5s both;
}

@keyframes animate-svg-stroke-39 {
  0% {
    stroke-dashoffset: 51.46905517578125px;
    stroke-dasharray: 51.46905517578125px;
  }

  100% {
    stroke-dashoffset: 0;
    stroke-dasharray: 51.46905517578125px;
  }
}

@keyframes animate-svg-fill-39 {
  0% {
    fill: transparent;
  }

  100% {
    fill: rgb(0, 0, 0);
  }
}

.svg-elem-39 {
  animation: animate-svg-stroke-39 1s linear 4.56s both,
               animate-svg-fill-39 0.7s cubic-bezier(0.95, 0.05, 0.795, 0.035) 4.6000000000000005s both;
}

@keyframes animate-svg-stroke-40 {
  0% {
    stroke-dashoffset: 72.43672943115234px;
    stroke-dasharray: 72.43672943115234px;
  }

  100% {
    stroke-dashoffset: 0;
    stroke-dasharray: 72.43672943115234px;
  }
}

@keyframes animate-svg-fill-40 {
  0% {
    fill: transparent;
  }

  100% {
    fill: rgb(0, 0, 0);
  }
}

.svg-elem-40 {
  animation: animate-svg-stroke-40 1s linear 4.68s both,
               animate-svg-fill-40 0.7s cubic-bezier(0.95, 0.05, 0.795, 0.035) 4.7s both;
}

@keyframes animate-svg-stroke-41 {
  0% {
    stroke-dashoffset: 61.40501403808594px;
    stroke-dasharray: 61.40501403808594px;
  }

  100% {
    stroke-dashoffset: 0;
    stroke-dasharray: 61.40501403808594px;
  }
}

@keyframes animate-svg-fill-41 {
  0% {
    fill: transparent;
  }

  100% {
    fill: rgb(0, 0, 0);
  }
}

.svg-elem-41 {
  animation: animate-svg-stroke-41 1s linear 4.8s both,
               animate-svg-fill-41 0.7s cubic-bezier(0.95, 0.05, 0.795, 0.035) 4.8s both;
}

@keyframes animate-svg-stroke-42 {
  0% {
    stroke-dashoffset: 36.91770935058594px;
    stroke-dasharray: 36.91770935058594px;
  }

  100% {
    stroke-dashoffset: 0;
    stroke-dasharray: 36.91770935058594px;
  }
}

@keyframes animate-svg-fill-42 {
  0% {
    fill: transparent;
  }

  100% {
    fill: rgb(0, 0, 0);
  }
}

.svg-elem-42 {
  animation: animate-svg-stroke-42 1s linear 4.92s both,
               animate-svg-fill-42 0.7s cubic-bezier(0.95, 0.05, 0.795, 0.035) 4.9s both;
}

@keyframes animate-svg-stroke-43 {
  0% {
    stroke-dashoffset: 61.404476165771484px;
    stroke-dasharray: 61.404476165771484px;
  }

  100% {
    stroke-dashoffset: 0;
    stroke-dasharray: 61.404476165771484px;
  }
}

@keyframes animate-svg-fill-43 {
  0% {
    fill: transparent;
  }

  100% {
    fill: rgb(0, 0, 0);
  }
}

.svg-elem-43 {
  animation: animate-svg-stroke-43 1s linear 5.04s both,
               animate-svg-fill-43 0.7s cubic-bezier(0.95, 0.05, 0.795, 0.035) 5s both;
}

@keyframes animate-svg-stroke-44 {
  0% {
    stroke-dashoffset: 10.993078231811523px;
    stroke-dasharray: 10.993078231811523px;
  }

  100% {
    stroke-dashoffset: 0;
    stroke-dasharray: 10.993078231811523px;
  }
}

@keyframes animate-svg-fill-44 {
  0% {
    fill: transparent;
  }

  100% {
    fill: rgb(0, 0, 0);
  }
}

.svg-elem-44 {
  animation: animate-svg-stroke-44 1s linear 5.16s both,
               animate-svg-fill-44 0.7s cubic-bezier(0.95, 0.05, 0.795, 0.035) 5.1s both;
}

@keyframes animate-svg-stroke-45 {
  0% {
    stroke-dashoffset: 26.29998016357422px;
    stroke-dasharray: 26.29998016357422px;
  }

  100% {
    stroke-dashoffset: 0;
    stroke-dasharray: 26.29998016357422px;
  }
}

@keyframes animate-svg-fill-45 {
  0% {
    fill: transparent;
  }

  100% {
    fill: rgb(0, 0, 0);
  }
}

.svg-elem-45 {
  animation: animate-svg-stroke-45 1s linear 5.279999999999999s both,
               animate-svg-fill-45 0.7s cubic-bezier(0.95, 0.05, 0.795, 0.035) 5.2s both;
}

@keyframes animate-svg-stroke-46 {
  0% {
    stroke-dashoffset: 58.32326126098633px;
    stroke-dasharray: 58.32326126098633px;
  }

  100% {
    stroke-dashoffset: 0;
    stroke-dasharray: 58.32326126098633px;
  }
}

@keyframes animate-svg-fill-46 {
  0% {
    fill: transparent;
  }

  100% {
    fill: rgb(0, 0, 0);
  }
}

.svg-elem-46 {
  animation: animate-svg-stroke-46 1s linear 5.3999999999999995s both,
               animate-svg-fill-46 0.7s cubic-bezier(0.95, 0.05, 0.795, 0.035) 5.3s both;
}


</style>
<style type="text/css">
	.st0{fill:#DC2991;stroke:#808080;stroke-width:0.5;stroke-miterlimit:10;}
	.st1{fill:#6A2990;stroke:#808080;stroke-width:0.5;stroke-miterlimit:10;}
	.st2{fill:#0860A8;stroke:#808080;stroke-width:0.5;stroke-miterlimit:10;}
	.st3{fill:#67B2D3;stroke:#808080;stroke-width:0.5;stroke-miterlimit:10;}
	.st4{stroke:#808080;stroke-width:0.5;}
</style>
<g>
	<g>
		<g>
			<g>
				<path class="st0 svg-elem-1" d="M56.55,6.17L56.09,6.5c-10.94,7.82-17.28,19.57-17.41,32.25c-0.13,12.68,5.98,24.54,16.76,32.54l0.45,0.33
					l-0.2-0.53c-3.67-9.76-5.55-20.92-5.44-32.25c0.12-11.33,2.22-22.45,6.09-32.15L56.55,6.17z"></path>
				<path class="st1 svg-elem-2" d="M54.71,72c-6.78-4.43-13.14-10.4-18.38-17.26c-5.24-6.86-9.18-14.37-11.4-21.71l-0.15-0.5l-0.17,0.5
					c-2.92,9.01-1.22,18.58,4.65,26.27c5.87,7.68,15.11,12.42,25.35,13l0.62,0.04L54.71,72z"></path>
				<path class="st2 svg-elem-3" d="M53.98,73.32C47.9,73.21,41.38,72,35.11,69.84c-6.25-2.16-12.02-5.2-16.67-8.8L18,60.7l0.19,0.53
					c2.3,6.55,7.65,11.7,14.67,14.13c2.78,0.96,5.69,1.45,8.64,1.45c4.41,0,8.75-1.1,12.56-3.18l0.55-0.3L53.98,73.32z"></path>
				<path class="st3 svg-elem-4" d="M54.34,74.71c-3.63,2.3-8,4.12-12.65,5.27c-3.73,0.93-7.46,1.4-11.09,1.4c-0.92,0-1.84-0.03-2.74-0.09
					l-0.61-0.05l0.51,0.35c3.04,2.04,6.77,3.17,10.51,3.17c1.56,0,3.13-0.19,4.65-0.57c5.25-1.3,9.5-4.68,11.66-9.26l0.24-0.51
					L54.34,74.71z"></path>
			</g>
			<path class="st4 svg-elem-5" d="M78.06,35.72h-5.59c-0.12-0.62-0.18-1.28-0.18-1.97c0-0.64,0.06-1.28,0.18-1.9h15.76
				c0.13,0.62,0.19,1.26,0.19,1.9c0,0.69-0.06,1.34-0.19,1.97h-5.59v18.57c-0.37,0.04-0.75,0.08-1.12,0.11
				c-0.38,0.03-0.74,0.05-1.09,0.05c-0.35,0-0.73-0.01-1.14-0.03c-0.41-0.02-0.82-0.06-1.24-0.12V35.72z"></path>
			<path class="st4 svg-elem-6" d="M88.42,38.16c0.31-0.06,0.61-0.11,0.89-0.14c0.28-0.03,0.59-0.04,0.92-0.04c0.31,0,0.61,0.02,0.92,0.06
				c0.3,0.04,0.6,0.09,0.89,0.16c0.06,0.11,0.12,0.26,0.17,0.45c0.05,0.2,0.1,0.4,0.14,0.62c0.04,0.22,0.08,0.44,0.11,0.65
				c0.03,0.22,0.06,0.4,0.08,0.55c0.46-0.65,1.02-1.22,1.68-1.73c0.66-0.51,1.5-0.77,2.5-0.77c0.21,0,0.44,0.01,0.72,0.03
				c0.27,0.02,0.47,0.05,0.59,0.09c0.04,0.21,0.07,0.45,0.1,0.72c0.02,0.27,0.03,0.55,0.03,0.84c0,0.35-0.01,0.74-0.05,1.15
				c-0.03,0.42-0.09,0.81-0.17,1.19c-0.23-0.04-0.48-0.06-0.76-0.06c-0.28,0-0.45,0-0.52,0c-0.35,0-0.75,0.04-1.18,0.11
				c-0.44,0.07-0.85,0.27-1.25,0.58c-0.4,0.31-0.72,0.78-0.98,1.4c-0.26,0.63-0.39,1.5-0.39,2.62v7.68
				c-0.38,0.06-0.75,0.11-1.12,0.13c-0.37,0.02-0.74,0.03-1.09,0.03c-0.36,0-0.72-0.01-1.08-0.03c-0.36-0.02-0.74-0.06-1.14-0.13
				V38.16z"></path>
			<path class="st4 svg-elem-7" d="M108.55,43.68c0-0.5-0.08-0.9-0.25-1.22c-0.16-0.31-0.39-0.56-0.68-0.73c-0.29-0.18-0.65-0.3-1.08-0.36
				c-0.43-0.06-0.9-0.1-1.42-0.1c-1.12,0-2.32,0.22-3.59,0.66c-0.29-0.54-0.51-1.05-0.65-1.53c-0.15-0.48-0.22-1.05-0.22-1.72
				c0.92-0.31,1.83-0.54,2.75-0.69c0.91-0.14,1.77-0.22,2.56-0.22c2.16,0,3.86,0.52,5.07,1.56c1.22,1.04,1.83,2.71,1.83,4.99v9.36
				c-0.73,0.23-1.61,0.45-2.65,0.65c-1.04,0.21-2.22,0.31-3.53,0.31c-1.06,0-2.03-0.09-2.92-0.28c-0.88-0.19-1.64-0.5-2.28-0.94
				c-0.63-0.44-1.12-1-1.46-1.68c-0.34-0.69-0.51-1.53-0.51-2.53c0-1,0.21-1.83,0.64-2.51c0.43-0.68,0.98-1.22,1.65-1.62
				c0.68-0.41,1.43-0.7,2.26-0.87c0.83-0.18,1.66-0.27,2.5-0.27c0.6,0,1.27,0.03,1.99,0.09V43.68z M108.55,46.89
				c-0.25-0.04-0.52-0.08-0.81-0.11c-0.29-0.03-0.55-0.05-0.78-0.05c-1.02,0-1.83,0.18-2.42,0.55c-0.59,0.36-0.89,0.95-0.89,1.76
				c0,0.54,0.11,0.96,0.34,1.25c0.23,0.29,0.51,0.51,0.83,0.64c0.32,0.14,0.67,0.22,1.03,0.25c0.36,0.03,0.68,0.05,0.95,0.05
				c0.31,0,0.63-0.03,0.94-0.08c0.31-0.05,0.58-0.1,0.81-0.14V46.89z"></path>
			<path class="st4 svg-elem-8" d="M114.29,38.19c0.5-0.11,0.96-0.17,1.39-0.19c0.43-0.02,0.8-0.03,1.11-0.03c0.42,0,0.83,0.01,1.25,0.03
				c0.42,0.02,0.8,0.07,1.15,0.16l3.53,12.02l3.47-12.02c0.35-0.06,0.73-0.11,1.12-0.14c0.39-0.03,0.79-0.04,1.19-0.04
				c0.31,0,0.67,0.01,1.08,0.03c0.4,0.02,0.87,0.08,1.39,0.19l-6.11,16.1c-0.4,0.06-0.81,0.1-1.25,0.12
				c-0.43,0.02-0.8,0.03-1.09,0.03c-0.31,0-0.66-0.01-1.06-0.03c-0.4-0.02-0.77-0.07-1.12-0.16L114.29,38.19z"></path>
			<path class="st4 svg-elem-9" d="M141.19,43.68c0-0.5-0.09-0.9-0.25-1.22c-0.17-0.31-0.4-0.56-0.69-0.73c-0.29-0.18-0.65-0.3-1.08-0.36
				c-0.43-0.06-0.9-0.1-1.42-0.1c-1.12,0-2.32,0.22-3.59,0.66c-0.29-0.54-0.51-1.05-0.66-1.53c-0.15-0.48-0.22-1.05-0.22-1.72
				c0.91-0.31,1.83-0.54,2.74-0.69c0.91-0.14,1.77-0.22,2.56-0.22c2.16,0,3.85,0.52,5.07,1.56c1.22,1.04,1.83,2.71,1.83,4.99v9.36
				c-0.73,0.23-1.61,0.45-2.65,0.65c-1.04,0.21-2.22,0.31-3.53,0.31c-1.06,0-2.03-0.09-2.92-0.28c-0.88-0.19-1.64-0.5-2.28-0.94
				c-0.63-0.44-1.12-1-1.47-1.68c-0.34-0.69-0.52-1.53-0.52-2.53c0-1,0.21-1.83,0.64-2.51c0.43-0.68,0.98-1.22,1.65-1.62
				c0.68-0.41,1.43-0.7,2.26-0.87c0.83-0.18,1.66-0.27,2.49-0.27c0.61,0,1.27,0.03,2,0.09V43.68z M141.19,46.89
				c-0.25-0.04-0.52-0.08-0.81-0.11c-0.29-0.03-0.55-0.05-0.78-0.05c-1.02,0-1.83,0.18-2.42,0.55c-0.6,0.36-0.89,0.95-0.89,1.76
				c0,0.54,0.11,0.96,0.34,1.25c0.23,0.29,0.5,0.51,0.83,0.64c0.32,0.14,0.66,0.22,1.03,0.25c0.36,0.03,0.68,0.05,0.95,0.05
				c0.31,0,0.62-0.03,0.94-0.08c0.31-0.05,0.58-0.1,0.81-0.14V46.89z"></path>
			<path class="st4 svg-elem-10" d="M149.27,38.16c0.29-0.06,0.58-0.11,0.87-0.14c0.29-0.03,0.62-0.04,0.97-0.04c0.35,0,0.66,0.01,0.94,0.04
				c0.27,0.03,0.55,0.08,0.84,0.14c0.06,0.1,0.12,0.26,0.17,0.45c0.05,0.2,0.1,0.41,0.14,0.62c0.04,0.22,0.08,0.43,0.11,0.64
				c0.03,0.21,0.06,0.38,0.08,0.53c0.21-0.31,0.46-0.62,0.75-0.94c0.29-0.31,0.63-0.59,1.01-0.84c0.38-0.25,0.82-0.45,1.29-0.61
				c0.48-0.16,1.01-0.23,1.59-0.23c1.83,0,3.21,0.5,4.14,1.5c0.92,1,1.39,2.57,1.39,4.71v10.3c-0.75,0.12-1.49,0.19-2.22,0.19
				c-0.73,0-1.47-0.06-2.22-0.19v-9.11c0-1.13-0.17-1.99-0.51-2.59c-0.35-0.6-0.94-0.9-1.79-0.9c-0.35,0-0.72,0.05-1.1,0.15
				c-0.37,0.11-0.71,0.31-1.01,0.61c-0.3,0.3-0.55,0.72-0.74,1.26c-0.19,0.54-0.28,1.25-0.28,2.12v8.46
				c-0.75,0.12-1.49,0.19-2.22,0.19c-0.73,0-1.47-0.06-2.22-0.19V38.16z"></path>
			<path class="st4 svg-elem-11" d="M178.26,50.48c0.25,0.41,0.46,0.9,0.62,1.45c0.17,0.55,0.25,1.2,0.25,1.95c-0.83,0.33-1.61,0.55-2.34,0.64
				c-0.73,0.1-1.49,0.14-2.28,0.14c-1.35,0-2.52-0.22-3.53-0.64c-1-0.43-1.82-1.01-2.48-1.76c-0.66-0.75-1.15-1.64-1.48-2.67
				c-0.33-1.03-0.5-2.15-0.5-3.36c0-1.18,0.16-2.29,0.48-3.3c0.32-1.02,0.81-1.91,1.47-2.69c0.65-0.77,1.47-1.37,2.45-1.81
				c0.98-0.44,2.11-0.65,3.4-0.65c0.46,0,0.88,0.01,1.26,0.03c0.39,0.02,0.76,0.06,1.11,0.12c0.36,0.06,0.71,0.15,1.06,0.25
				c0.36,0.11,0.75,0.24,1.19,0.41c0,0.48-0.06,1.01-0.19,1.61c-0.12,0.6-0.32,1.16-0.59,1.7c-0.62-0.21-1.17-0.35-1.64-0.42
				c-0.47-0.07-1-0.11-1.61-0.11c-1.29,0-2.26,0.42-2.92,1.26c-0.66,0.84-0.98,2.04-0.98,3.6c0,1.69,0.35,2.91,1.06,3.68
				c0.71,0.77,1.67,1.16,2.87,1.16c0.31,0,0.6-0.01,0.86-0.02c0.26-0.01,0.51-0.04,0.76-0.08c0.25-0.04,0.51-0.11,0.77-0.19
				C177.6,50.71,177.91,50.61,178.26,50.48z"></path>
			<path class="st4 svg-elem-12" d="M188.46,54.66c-1.31,0-2.45-0.22-3.42-0.64c-0.97-0.43-1.77-1.02-2.41-1.78c-0.64-0.76-1.11-1.65-1.43-2.67
				c-0.33-1.02-0.48-2.12-0.48-3.31c0-1.18,0.16-2.3,0.48-3.34c0.32-1.04,0.8-1.94,1.43-2.7c0.64-0.76,1.44-1.36,2.41-1.79
				c0.97-0.44,2.1-0.65,3.42-0.65c1.31,0,2.46,0.22,3.43,0.65c0.98,0.44,1.79,1.03,2.43,1.79c0.65,0.76,1.12,1.66,1.43,2.7
				c0.31,1.04,0.47,2.15,0.47,3.34c0,1.19-0.15,2.29-0.47,3.31c-0.31,1.02-0.79,1.91-1.43,2.67c-0.64,0.76-1.45,1.35-2.43,1.78
				C190.92,54.45,189.77,54.66,188.46,54.66z M188.46,51.29c1.16,0,2-0.43,2.51-1.3c0.51-0.86,0.77-2.11,0.77-3.73
				c0-1.62-0.26-2.86-0.77-3.73c-0.51-0.86-1.35-1.29-2.51-1.29c-1.14,0-1.97,0.43-2.48,1.29c-0.51,0.86-0.77,2.11-0.77,3.73
				c0,1.62,0.25,2.87,0.77,3.73C186.49,50.86,187.32,51.29,188.46,51.29z"></path>
			<path class="st4 svg-elem-13" d="M199.57,38.16c0.32-0.06,0.61-0.11,0.89-0.14c0.28-0.03,0.59-0.04,0.92-0.04c0.31,0,0.62,0.02,0.92,0.06
				c0.3,0.04,0.6,0.09,0.89,0.16c0.07,0.11,0.12,0.26,0.17,0.45c0.05,0.2,0.1,0.4,0.14,0.62c0.04,0.22,0.07,0.44,0.11,0.65
				c0.03,0.22,0.06,0.4,0.08,0.55c0.46-0.65,1.02-1.22,1.69-1.73c0.67-0.51,1.49-0.77,2.5-0.77c0.21,0,0.45,0.01,0.72,0.03
				c0.27,0.02,0.47,0.05,0.59,0.09c0.04,0.21,0.07,0.45,0.09,0.72c0.02,0.27,0.03,0.55,0.03,0.84c0,0.35-0.02,0.74-0.05,1.15
				c-0.03,0.42-0.09,0.81-0.17,1.19c-0.23-0.04-0.49-0.06-0.77-0.06c-0.28,0-0.45,0-0.52,0c-0.35,0-0.75,0.04-1.18,0.11
				c-0.44,0.07-0.86,0.27-1.25,0.58c-0.4,0.31-0.72,0.78-0.98,1.4c-0.26,0.63-0.39,1.5-0.39,2.62v7.68
				c-0.38,0.06-0.75,0.11-1.12,0.13c-0.37,0.02-0.74,0.03-1.09,0.03c-0.35,0-0.71-0.01-1.08-0.03c-0.36-0.02-0.75-0.06-1.14-0.13
				V38.16z"></path>
			<path class="st4 svg-elem-14" d="M215.02,47.58c0.08,1.25,0.52,2.15,1.31,2.71c0.79,0.56,1.83,0.84,3.12,0.84c0.71,0,1.43-0.07,2.17-0.2
				c0.74-0.13,1.44-0.33,2.11-0.58c0.23,0.42,0.42,0.92,0.59,1.5c0.16,0.58,0.26,1.21,0.28,1.87c-1.63,0.62-3.46,0.94-5.49,0.94
				c-1.5,0-2.78-0.21-3.86-0.62c-1.07-0.42-1.94-0.99-2.62-1.73c-0.67-0.74-1.18-1.62-1.5-2.64c-0.32-1.02-0.48-2.13-0.48-3.34
				c0-1.19,0.17-2.3,0.5-3.34c0.33-1.04,0.83-1.95,1.48-2.72c0.66-0.77,1.47-1.38,2.44-1.83c0.97-0.45,2.09-0.67,3.39-0.67
				c1.12,0,2.12,0.2,3,0.59c0.87,0.4,1.62,0.93,2.23,1.62c0.61,0.69,1.08,1.5,1.39,2.45c0.31,0.95,0.47,1.96,0.47,3.04
				c0,0.39-0.02,0.78-0.05,1.17c-0.03,0.39-0.07,0.69-0.11,0.92H215.02z M221.36,44.49c-0.04-1-0.32-1.8-0.83-2.42
				c-0.51-0.61-1.23-0.92-2.13-0.92c-1.05,0-1.83,0.29-2.37,0.87c-0.54,0.59-0.87,1.41-0.97,2.47H221.36z"></path>
			<path class="st4 svg-elem-15" d="M73.38,59.05c0.13-0.02,0.32-0.04,0.6-0.05c0.27-0.01,0.52-0.02,0.75-0.02c0.23,0,0.48,0.01,0.75,0.02
				c0.27,0.01,0.48,0.03,0.63,0.05l6.27,14.95l6.21-14.95c0.12-0.02,0.33-0.04,0.61-0.05c0.28-0.01,0.53-0.02,0.73-0.02
				s0.45,0.01,0.72,0.02c0.27,0.01,0.48,0.03,0.62,0.05l1.09,22.43c-0.14,0.02-0.31,0.04-0.5,0.05c-0.19,0.01-0.38,0.01-0.56,0.01
				c-0.21,0-0.41,0-0.61-0.01c-0.2-0.01-0.36-0.03-0.48-0.05l-0.84-19.09l-6.18,14.44c-0.15,0.05-0.29,0.06-0.43,0.06
				c-0.15,0-0.29,0-0.44,0c-0.15,0-0.29,0-0.42,0c-0.14,0-0.27-0.02-0.42-0.06l-6.12-14.48l-0.91,19.13
				c-0.15,0.02-0.31,0.04-0.5,0.05c-0.19,0.01-0.37,0.01-0.56,0.01c-0.21,0-0.41,0-0.61-0.01c-0.2-0.01-0.36-0.03-0.48-0.05
				L73.38,59.05z"></path>
			<path class="st4 svg-elem-16" d="M98.31,73.84c0,2.12,0.49,3.69,1.47,4.68c0.98,1,2.44,1.5,4.4,1.5c0.79,0,1.53-0.07,2.2-0.2
				c0.68-0.14,1.34-0.32,1.98-0.55c0.1,0.23,0.18,0.51,0.25,0.84c0.06,0.33,0.1,0.63,0.12,0.9c-0.6,0.27-1.31,0.48-2.12,0.62
				c-0.81,0.15-1.7,0.22-2.65,0.22c-1.37,0-2.55-0.21-3.54-0.61c-0.99-0.41-1.8-0.97-2.43-1.7c-0.64-0.73-1.11-1.6-1.41-2.6
				c-0.3-1.01-0.45-2.12-0.45-3.33c0-1.17,0.14-2.26,0.42-3.28c0.28-1.02,0.71-1.91,1.28-2.68c0.57-0.77,1.31-1.37,2.2-1.81
				c0.89-0.44,1.97-0.66,3.21-0.66c1.04,0,1.97,0.17,2.78,0.53c0.81,0.36,1.49,0.85,2.04,1.48c0.55,0.64,0.97,1.4,1.25,2.28
				c0.28,0.88,0.42,1.85,0.42,2.89c0,0.19,0,0.43-0.02,0.72c-0.01,0.29-0.03,0.54-0.05,0.75H98.31z M107.68,72.12
				c0-0.64-0.08-1.28-0.25-1.91c-0.17-0.62-0.42-1.17-0.78-1.64c-0.35-0.47-0.81-0.85-1.37-1.14c-0.56-0.29-1.24-0.44-2.03-0.44
				c-1.46,0-2.59,0.45-3.4,1.34c-0.81,0.89-1.3,2.15-1.47,3.78H107.68z"></path>
			<path class="st4 svg-elem-17" d="M124.18,58.55c0.12-0.02,0.3-0.04,0.53-0.05c0.23-0.01,0.4-0.02,0.5-0.02c0.13,0,0.3,0.01,0.52,0.02
				c0.22,0.01,0.39,0.03,0.52,0.05v22.56c-0.64,0.21-1.45,0.38-2.4,0.53c-0.96,0.15-1.96,0.22-2.99,0.22
				c-1.14,0-2.22-0.14-3.21-0.41c-1-0.27-1.86-0.72-2.59-1.34c-0.73-0.63-1.31-1.45-1.73-2.47c-0.43-1.02-0.64-2.28-0.64-3.78
				c0-1.37,0.19-2.6,0.56-3.67c0.37-1.07,0.9-1.98,1.59-2.71c0.69-0.74,1.51-1.31,2.48-1.7c0.97-0.4,2.03-0.59,3.2-0.59
				c0.69,0,1.37,0.06,2.05,0.17c0.67,0.12,1.22,0.25,1.64,0.39V58.55z M124.18,67.69c-0.42-0.16-0.95-0.31-1.59-0.45
				c-0.65-0.13-1.31-0.2-2-0.2c-0.98,0-1.83,0.17-2.54,0.5c-0.72,0.33-1.32,0.79-1.8,1.39c-0.48,0.59-0.84,1.31-1.08,2.14
				c-0.24,0.83-0.36,1.75-0.36,2.74c0,2.17,0.52,3.74,1.55,4.73c1.03,0.98,2.49,1.48,4.39,1.48c0.68,0,1.34-0.04,1.96-0.11
				c0.63-0.07,1.11-0.16,1.47-0.26V67.69z"></path>
			<path class="st4 svg-elem-18" d="M131.92,67.32h-2c-0.02-0.1-0.04-0.23-0.05-0.38c-0.01-0.14-0.02-0.3-0.02-0.47c0-0.17,0.01-0.33,0.02-0.5
				c0.01-0.16,0.03-0.3,0.05-0.41h4.06v15.91c-0.12,0.02-0.3,0.04-0.51,0.05c-0.22,0.01-0.39,0.01-0.52,0.01c-0.1,0-0.27,0-0.5-0.01
				c-0.23-0.01-0.4-0.03-0.53-0.05V67.32z M130.89,61.67c-0.02-0.19-0.04-0.42-0.05-0.69c-0.01-0.27-0.01-0.5-0.01-0.69
				c0-0.17,0-0.38,0.01-0.62c0.01-0.25,0.03-0.46,0.05-0.63c0.19-0.02,0.42-0.04,0.69-0.05c0.27-0.01,0.5-0.02,0.68-0.02
				c0.17,0,0.37,0.01,0.63,0.02c0.25,0.01,0.46,0.03,0.62,0.05c0.02,0.17,0.04,0.38,0.05,0.63c0.01,0.25,0.02,0.46,0.02,0.62
				c0,0.19-0.01,0.42-0.02,0.69c-0.01,0.27-0.03,0.5-0.05,0.69c-0.17,0.02-0.37,0.04-0.62,0.05c-0.25,0.01-0.46,0.01-0.63,0.01
				c-0.19,0-0.41,0-0.68-0.01C131.31,61.71,131.08,61.69,130.89,61.67z"></path>
			<path class="st4 svg-elem-19" d="M149.24,79.49c0.11,0.21,0.2,0.49,0.3,0.84c0.09,0.36,0.16,0.65,0.2,0.87c-0.52,0.19-1.11,0.34-1.77,0.47
				c-0.67,0.13-1.41,0.19-2.22,0.19c-2.6,0-4.57-0.71-5.93-2.14c-1.35-1.43-2.03-3.49-2.03-6.2c0-1.18,0.16-2.28,0.5-3.29
				c0.33-1.01,0.82-1.89,1.47-2.64c0.65-0.75,1.45-1.34,2.42-1.76c0.97-0.43,2.08-0.64,3.35-0.64c0.79,0,1.55,0.06,2.26,0.17
				c0.72,0.12,1.28,0.25,1.7,0.39c0,0.27-0.04,0.58-0.11,0.94c-0.07,0.35-0.15,0.63-0.24,0.84c-0.41-0.15-0.94-0.27-1.58-0.38
				c-0.63-0.1-1.31-0.15-2.04-0.15c-0.94,0-1.76,0.16-2.45,0.48c-0.7,0.32-1.28,0.77-1.75,1.36c-0.47,0.58-0.82,1.27-1.04,2.06
				c-0.23,0.79-0.34,1.67-0.34,2.62c0,2.25,0.53,3.9,1.61,4.95c1.07,1.05,2.52,1.57,4.35,1.57c0.63,0,1.22-0.05,1.79-0.15
				C148.27,79.79,148.78,79.66,149.24,79.49z"></path>
			<path class="st4 svg-elem-20" d="M153.86,67.32h-2c-0.02-0.1-0.04-0.23-0.05-0.38c-0.01-0.14-0.02-0.3-0.02-0.47c0-0.17,0.01-0.33,0.02-0.5
				c0.01-0.16,0.03-0.3,0.05-0.41h4.06v15.91c-0.12,0.02-0.3,0.04-0.52,0.05c-0.22,0.01-0.39,0.01-0.52,0.01c-0.1,0-0.27,0-0.5-0.01
				c-0.23-0.01-0.41-0.03-0.53-0.05V67.32z M152.83,61.67c-0.02-0.19-0.04-0.42-0.05-0.69c-0.01-0.27-0.02-0.5-0.02-0.69
				c0-0.17,0.01-0.38,0.02-0.62c0.01-0.25,0.03-0.46,0.05-0.63c0.19-0.02,0.42-0.04,0.69-0.05c0.27-0.01,0.5-0.02,0.69-0.02
				c0.16,0,0.37,0.01,0.63,0.02c0.25,0.01,0.45,0.03,0.62,0.05c0.02,0.17,0.03,0.38,0.05,0.63c0.01,0.25,0.01,0.46,0.01,0.62
				c0,0.19,0,0.42-0.01,0.69c-0.01,0.27-0.03,0.5-0.05,0.69c-0.17,0.02-0.38,0.04-0.62,0.05c-0.25,0.01-0.46,0.01-0.63,0.01
				c-0.19,0-0.42,0-0.69-0.01C153.25,61.71,153.01,61.69,152.83,61.67z"></path>
			<path class="st4 svg-elem-21" d="M161.35,67.32h-2.72c-0.02-0.1-0.04-0.24-0.04-0.41c-0.01-0.16-0.02-0.33-0.02-0.5c0-0.17,0-0.32,0.02-0.47
				c0.01-0.14,0.02-0.27,0.04-0.38h2.72v-2.99l1.93-1.9h0.13v4.9h4.3c0.02,0.11,0.04,0.23,0.05,0.38c0.01,0.15,0.02,0.3,0.02,0.47
				c0,0.16-0.01,0.33-0.02,0.5c-0.01,0.17-0.02,0.3-0.05,0.41h-4.3v10.36c0,0.52,0.06,0.93,0.2,1.23c0.14,0.3,0.31,0.54,0.53,0.7
				c0.22,0.17,0.46,0.27,0.75,0.33c0.28,0.05,0.57,0.08,0.86,0.08c0.73,0,1.36-0.1,1.9-0.28c0.15,0.54,0.25,1.12,0.31,1.74
				c-0.75,0.23-1.62,0.35-2.62,0.35c-1.19,0-2.15-0.32-2.89-0.95c-0.74-0.63-1.11-1.67-1.11-3.11V67.32z"></path>
			<path class="st4 svg-elem-22" d="M175.7,81.55h-0.6c-0.18,0-0.4,0-0.64-0.01c-0.24-0.01-0.42-0.03-0.55-0.05l-5.74-15.91
				c0.12-0.02,0.3-0.04,0.53-0.05c0.23-0.01,0.45-0.01,0.66-0.01c0.17,0,0.37,0,0.62,0.01c0.25,0.01,0.44,0.03,0.56,0.05l5.27,15.48
				l5.18-15.48c0.12-0.02,0.29-0.04,0.5-0.05c0.21-0.01,0.4-0.01,0.56-0.01c0.17,0,0.35,0,0.57,0.01c0.21,0.01,0.38,0.03,0.5,0.05
				l-6.99,20.63c-0.37,1.15-0.91,1.95-1.59,2.41c-0.68,0.46-1.5,0.68-2.43,0.68c-0.44,0-0.88-0.05-1.33-0.12
				c-0.45-0.08-0.82-0.17-1.11-0.25c0-0.64,0.16-1.23,0.47-1.75c0.16,0.06,0.41,0.13,0.75,0.2c0.33,0.07,0.71,0.11,1.12,0.11
				c0.6,0,1.09-0.14,1.45-0.44c0.37-0.29,0.68-0.83,0.95-1.62L175.7,81.55z"></path>
		</g>
		<g>
			<path class="st4 svg-elem-23" d="M20.45,119.18l8.54-15.42h1.58l3.04,15.42h-1.9l-0.89-4.64h-5.75l-2.55,4.64H20.45z M25.99,112.84h4.51
				l-0.55-2.96c-0.25-1.36-0.45-2.48-0.58-3.38h-0.05c-0.41,0.94-1.02,2.15-1.84,3.64L25.99,112.84z"></path>
			<path class="st4 svg-elem-24" d="M44.3,109.65c0.17-0.24,0.36-0.46,0.56-0.67c0.21-0.21,0.44-0.39,0.69-0.54c0.25-0.15,0.53-0.27,0.84-0.36
				c0.3-0.09,0.63-0.13,0.98-0.13c0.41,0,0.81,0.07,1.21,0.21c0.4,0.14,0.76,0.36,1.07,0.67c0.31,0.31,0.57,0.7,0.76,1.19
				c0.19,0.48,0.29,1.07,0.29,1.76c0,0.57-0.05,1.15-0.16,1.76c-0.1,0.6-0.27,1.19-0.48,1.76c-0.22,0.57-0.49,1.11-0.82,1.61
				c-0.33,0.51-0.72,0.95-1.18,1.33c-0.46,0.38-0.98,0.68-1.56,0.9c-0.58,0.22-1.23,0.33-1.94,0.33c-0.53,0-1-0.08-1.42-0.25
				c-0.41-0.17-0.77-0.39-1.05-0.68c-0.29-0.29-0.51-0.63-0.66-1.03c-0.15-0.4-0.22-0.83-0.22-1.3c0-0.2,0.01-0.39,0.03-0.59
				s0.06-0.4,0.1-0.62l2.62-12.5h1.79l-1.5,7.16H44.3z M43.16,114.97c-0.04,0.18-0.07,0.37-0.1,0.55c-0.03,0.18-0.05,0.37-0.05,0.57
				c0,0.58,0.15,1.03,0.46,1.36s0.74,0.5,1.31,0.5c0.46,0,0.89-0.09,1.27-0.28c0.39-0.18,0.73-0.43,1.04-0.74
				c0.3-0.31,0.57-0.66,0.8-1.07s0.42-0.84,0.57-1.29c0.15-0.45,0.26-0.9,0.34-1.34c0.08-0.44,0.12-0.86,0.12-1.26
				c0-0.31-0.04-0.62-0.11-0.92c-0.07-0.3-0.19-0.56-0.35-0.8c-0.16-0.23-0.37-0.42-0.63-0.56c-0.26-0.14-0.57-0.21-0.94-0.21
				c-0.31,0-0.64,0.07-0.97,0.2c-0.33,0.13-0.65,0.33-0.96,0.61c-0.3,0.28-0.58,0.63-0.82,1.05c-0.24,0.42-0.42,0.93-0.55,1.51
				L43.16,114.97z"></path>
			<path class="st4 svg-elem-25" d="M61.88,110.78c0,0.68-0.17,1.26-0.51,1.72c-0.34,0.46-0.83,0.83-1.47,1.12c-0.64,0.28-1.43,0.49-2.36,0.63
				s-1.99,0.22-3.18,0.25c-0.01,0.08-0.01,0.17-0.02,0.25c0,0.08-0.01,0.18-0.01,0.28c0,1,0.25,1.73,0.75,2.19s1.25,0.69,2.25,0.69
				c0.26,0,0.53-0.02,0.81-0.05c0.28-0.03,0.56-0.08,0.84-0.15c0.28-0.07,0.54-0.14,0.8-0.22c0.26-0.08,0.49-0.18,0.7-0.28
				l-0.32,1.64c-0.39,0.18-0.85,0.33-1.39,0.45c-0.53,0.12-1.11,0.18-1.73,0.18c-0.78,0-1.46-0.11-2.02-0.32
				c-0.56-0.21-1.03-0.52-1.39-0.9c-0.36-0.39-0.63-0.85-0.81-1.38s-0.26-1.12-0.26-1.76c0-0.58,0.06-1.17,0.17-1.75
				c0.11-0.58,0.29-1.14,0.51-1.67c0.23-0.53,0.51-1.02,0.84-1.48c0.33-0.45,0.72-0.85,1.16-1.18c0.44-0.33,0.93-0.6,1.47-0.79
				c0.54-0.19,1.13-0.29,1.76-0.29c0.45,0,0.89,0.06,1.3,0.17c0.41,0.11,0.77,0.28,1.09,0.52c0.32,0.23,0.56,0.53,0.75,0.89
				C61.78,109.88,61.88,110.3,61.88,110.78z M54.7,112.89c0.85,0,1.6-0.04,2.27-0.13c0.67-0.08,1.23-0.21,1.69-0.39
				c0.46-0.17,0.81-0.4,1.06-0.67c0.25-0.27,0.37-0.61,0.37-1c0-0.16-0.03-0.32-0.1-0.47c-0.07-0.15-0.17-0.28-0.31-0.4
				c-0.14-0.11-0.31-0.21-0.51-0.28c-0.2-0.07-0.44-0.1-0.7-0.1c-0.44,0-0.85,0.08-1.25,0.24c-0.4,0.16-0.76,0.39-1.08,0.69
				c-0.33,0.3-0.61,0.66-0.86,1.08C55.03,111.91,54.84,112.38,54.7,112.89z"></path>
			<path class="st4 svg-elem-26" d="M68.81,119.25c-0.18,0.05-0.45,0.1-0.8,0.15c-0.35,0.05-0.69,0.07-1.04,0.07c-0.97,0-1.67-0.19-2.12-0.58
				c-0.45-0.39-0.67-0.92-0.67-1.6c0-0.25,0.04-0.57,0.12-0.96l1.36-6.57h-2.12l0.32-1.53h2.12l0.62-3h1.8l-0.62,3h2.89l-0.31,1.53
				h-2.9l-1.28,6.13c-0.04,0.2-0.07,0.37-0.09,0.52c-0.02,0.15-0.03,0.29-0.03,0.43c0,0.4,0.11,0.68,0.32,0.83
				c0.21,0.16,0.57,0.24,1.08,0.24c0.23,0,0.5-0.02,0.82-0.06c0.32-0.04,0.6-0.09,0.85-0.16L68.81,119.25z"></path>
			<path class="st4 svg-elem-27" d="M76.87,119.25c-0.18,0.05-0.45,0.1-0.8,0.15c-0.35,0.05-0.69,0.07-1.04,0.07c-0.97,0-1.67-0.19-2.12-0.58
				c-0.45-0.39-0.67-0.92-0.67-1.6c0-0.25,0.04-0.57,0.12-0.96l1.36-6.57H71.6l0.32-1.53h2.12l0.62-3h1.8l-0.62,3h2.89l-0.31,1.53
				h-2.9l-1.28,6.13c-0.04,0.2-0.07,0.37-0.09,0.52c-0.02,0.15-0.03,0.29-0.03,0.43c0,0.4,0.11,0.68,0.32,0.83
				c0.21,0.16,0.57,0.24,1.08,0.24c0.23,0,0.5-0.02,0.82-0.06c0.32-0.04,0.6-0.09,0.85-0.16L76.87,119.25z"></path>
			<path class="st4 svg-elem-28" d="M88.75,110.78c0,0.68-0.17,1.26-0.51,1.72c-0.34,0.46-0.83,0.83-1.47,1.12c-0.64,0.28-1.43,0.49-2.36,0.63
				s-1.99,0.22-3.18,0.25c-0.01,0.08-0.01,0.17-0.02,0.25c0,0.08-0.01,0.18-0.01,0.28c0,1,0.25,1.73,0.75,2.19
				c0.5,0.46,1.25,0.69,2.25,0.69c0.26,0,0.53-0.02,0.81-0.05c0.28-0.03,0.56-0.08,0.84-0.15c0.28-0.07,0.54-0.14,0.8-0.22
				c0.26-0.08,0.49-0.18,0.7-0.28l-0.32,1.64c-0.39,0.18-0.85,0.33-1.39,0.45c-0.53,0.12-1.11,0.18-1.73,0.18
				c-0.78,0-1.46-0.11-2.02-0.32c-0.56-0.21-1.03-0.52-1.39-0.9c-0.36-0.39-0.63-0.85-0.81-1.38c-0.17-0.53-0.26-1.12-0.26-1.76
				c0-0.58,0.06-1.17,0.17-1.75c0.11-0.58,0.29-1.14,0.51-1.67c0.23-0.53,0.51-1.02,0.84-1.48c0.33-0.45,0.72-0.85,1.16-1.18
				c0.44-0.33,0.93-0.6,1.47-0.79c0.54-0.19,1.13-0.29,1.76-0.29c0.45,0,0.89,0.06,1.3,0.17c0.41,0.11,0.77,0.28,1.09,0.52
				c0.32,0.23,0.56,0.53,0.75,0.89C88.65,109.88,88.75,110.3,88.75,110.78z M81.57,112.89c0.85,0,1.6-0.04,2.27-0.13
				c0.67-0.08,1.23-0.21,1.69-0.39c0.46-0.17,0.81-0.4,1.06-0.67c0.25-0.27,0.37-0.61,0.37-1c0-0.16-0.03-0.32-0.1-0.47
				c-0.07-0.15-0.17-0.28-0.31-0.4c-0.14-0.11-0.31-0.21-0.51-0.28c-0.2-0.07-0.44-0.1-0.7-0.1c-0.44,0-0.85,0.08-1.25,0.24
				c-0.4,0.16-0.76,0.39-1.08,0.69c-0.33,0.3-0.61,0.66-0.86,1.08C81.9,111.91,81.71,112.38,81.57,112.89z"></path>
			<path class="st4 svg-elem-29" d="M97.39,109.76c-0.24-0.03-0.47-0.05-0.7-0.05c-0.54,0-1.02,0.09-1.45,0.27c-0.43,0.18-0.8,0.43-1.12,0.74
				c-0.31,0.31-0.57,0.68-0.78,1.09c-0.2,0.42-0.36,0.86-0.45,1.33l-1.26,6.04h-1.79l2.28-10.95h1.46v1.49h0.05
				c0.18-0.25,0.39-0.48,0.61-0.69c0.22-0.22,0.47-0.4,0.75-0.56c0.28-0.16,0.58-0.29,0.9-0.38c0.33-0.09,0.68-0.14,1.07-0.14
				c0.14,0,0.27,0.01,0.4,0.02s0.26,0.03,0.38,0.05L97.39,109.76z"></path>
			<path class="st4 svg-elem-30" d="M105.5,119.25c-0.12,0.03-0.28,0.06-0.48,0.08c-0.2,0.02-0.4,0.03-0.61,0.03c-0.64,0-1.13-0.13-1.46-0.38
				c-0.33-0.25-0.49-0.65-0.49-1.2c0-0.23,0.03-0.5,0.09-0.81l3.03-14.47h1.79l-2.93,14c-0.07,0.35-0.1,0.6-0.1,0.75
				c0,0.19,0.05,0.33,0.16,0.42c0.11,0.09,0.29,0.13,0.54,0.13c0.25,0,0.51-0.02,0.76-0.07L105.5,119.25z"></path>
			<path class="st4 svg-elem-31" d="M107.72,119.18l2.27-10.95h1.79l-2.27,10.95H107.72z M110.48,105.69l0.4-1.97h1.88l-0.4,1.97H110.48z"></path>
			<path class="st4 svg-elem-32" d="M115,120.69c-0.16,0.78-0.38,1.43-0.67,1.95c-0.28,0.53-0.63,0.95-1.03,1.27c-0.4,0.32-0.85,0.55-1.35,0.7
				c-0.5,0.14-1.05,0.21-1.64,0.21c-0.35,0-0.67-0.03-0.96-0.08c-0.28-0.05-0.49-0.1-0.62-0.15l0.29-1.52
				c0.18,0.06,0.38,0.11,0.6,0.14c0.22,0.03,0.43,0.05,0.61,0.05c0.45,0,0.83-0.06,1.16-0.17c0.33-0.11,0.61-0.3,0.86-0.56
				c0.25-0.27,0.46-0.61,0.64-1.04c0.18-0.43,0.33-0.96,0.46-1.6l2.12-10.13h-2.02l0.32-1.53h2.02l0.39-1.9
				c0.29-1.4,0.83-2.43,1.63-3.11c0.8-0.68,1.76-1.01,2.9-1.01c0.37,0,0.7,0.03,1.01,0.08c0.3,0.05,0.54,0.11,0.71,0.17l-0.28,1.49
				c-0.23-0.06-0.46-0.11-0.69-0.14c-0.23-0.03-0.46-0.05-0.68-0.05c-0.77,0-1.38,0.22-1.85,0.66c-0.46,0.44-0.79,1.13-0.98,2.06
				l-0.36,1.75h3.01l-0.32,1.53h-3.01L115,120.69z"></path>
			<path class="st4 svg-elem-33" d="M129.85,110.78c0,0.68-0.17,1.26-0.51,1.72c-0.34,0.46-0.83,0.83-1.47,1.12c-0.64,0.28-1.43,0.49-2.36,0.63
				s-1.99,0.22-3.18,0.25c-0.01,0.08-0.01,0.17-0.02,0.25c0,0.08-0.01,0.18-0.01,0.28c0,1,0.25,1.73,0.75,2.19
				c0.5,0.46,1.25,0.69,2.25,0.69c0.26,0,0.53-0.02,0.81-0.05c0.28-0.03,0.56-0.08,0.84-0.15c0.28-0.07,0.54-0.14,0.8-0.22
				c0.26-0.08,0.49-0.18,0.7-0.28l-0.32,1.64c-0.39,0.18-0.85,0.33-1.39,0.45c-0.53,0.12-1.11,0.18-1.73,0.18
				c-0.78,0-1.46-0.11-2.02-0.32c-0.56-0.21-1.03-0.52-1.39-0.9c-0.36-0.39-0.63-0.85-0.81-1.38c-0.17-0.53-0.26-1.12-0.26-1.76
				c0-0.58,0.06-1.17,0.17-1.75c0.11-0.58,0.29-1.14,0.51-1.67c0.23-0.53,0.51-1.02,0.84-1.48c0.33-0.45,0.72-0.85,1.16-1.18
				c0.44-0.33,0.93-0.6,1.47-0.79c0.54-0.19,1.13-0.29,1.76-0.29c0.45,0,0.89,0.06,1.3,0.17c0.41,0.11,0.77,0.28,1.09,0.52
				c0.32,0.23,0.56,0.53,0.75,0.89C129.76,109.88,129.85,110.3,129.85,110.78z M122.67,112.89c0.85,0,1.6-0.04,2.27-0.13
				c0.67-0.08,1.23-0.21,1.69-0.39c0.46-0.17,0.81-0.4,1.06-0.67c0.25-0.27,0.37-0.61,0.37-1c0-0.16-0.03-0.32-0.1-0.47
				c-0.07-0.15-0.17-0.28-0.31-0.4c-0.14-0.11-0.31-0.21-0.51-0.28c-0.2-0.07-0.44-0.1-0.7-0.1c-0.44,0-0.85,0.08-1.25,0.24
				c-0.4,0.16-0.76,0.39-1.08,0.69c-0.33,0.3-0.61,0.66-0.86,1.08C123,111.91,122.81,112.38,122.67,112.89z"></path>
			<path class="st4 svg-elem-34" d="M138.5,111.17c0,0.24,0.05,0.44,0.14,0.62c0.1,0.17,0.22,0.32,0.39,0.45s0.35,0.24,0.56,0.33
				c0.21,0.09,0.44,0.18,0.68,0.27c0.33,0.12,0.66,0.24,1,0.37c0.34,0.13,0.64,0.31,0.92,0.52c0.28,0.21,0.5,0.48,0.68,0.8
				c0.18,0.32,0.27,0.74,0.27,1.24c0,0.61-0.11,1.14-0.34,1.6s-0.54,0.85-0.94,1.16c-0.4,0.31-0.88,0.55-1.44,0.7
				c-0.56,0.16-1.17,0.24-1.83,0.24c-0.59,0-1.19-0.06-1.79-0.19c-0.6-0.13-1.08-0.29-1.42-0.5l0.33-1.5
				c0.41,0.18,0.85,0.33,1.33,0.47c0.48,0.14,1,0.2,1.55,0.2c0.6,0,1.08-0.07,1.45-0.21c0.36-0.14,0.65-0.31,0.85-0.52
				c0.2-0.2,0.34-0.42,0.4-0.64c0.06-0.22,0.1-0.42,0.1-0.58c0-0.3-0.07-0.55-0.21-0.75s-0.32-0.37-0.54-0.51
				c-0.22-0.14-0.48-0.26-0.76-0.36c-0.28-0.1-0.58-0.21-0.88-0.32c-0.28-0.11-0.56-0.23-0.84-0.36c-0.28-0.13-0.52-0.3-0.73-0.5
				c-0.21-0.2-0.38-0.44-0.51-0.73c-0.13-0.29-0.2-0.64-0.2-1.05c0-0.59,0.11-1.1,0.32-1.54c0.21-0.43,0.51-0.8,0.87-1.08
				c0.36-0.29,0.79-0.5,1.26-0.64c0.48-0.14,0.98-0.21,1.51-0.21c0.31,0,0.63,0.02,0.93,0.06c0.31,0.04,0.6,0.1,0.89,0.17
				c0.28,0.07,0.55,0.15,0.8,0.24c0.25,0.09,0.47,0.18,0.66,0.28l-0.31,1.47c-0.46-0.2-0.94-0.37-1.42-0.5
				c-0.49-0.13-0.97-0.2-1.46-0.2c-0.37,0-0.7,0.04-0.98,0.13c-0.28,0.09-0.52,0.21-0.71,0.36c-0.19,0.15-0.34,0.33-0.44,0.54
				S138.5,110.93,138.5,111.17z"></path>
			<path class="st4 svg-elem-35" d="M150.91,119.25c-0.18,0.05-0.45,0.1-0.8,0.15c-0.35,0.05-0.69,0.07-1.04,0.07c-0.97,0-1.67-0.19-2.12-0.58
				c-0.45-0.39-0.67-0.92-0.67-1.6c0-0.25,0.04-0.57,0.12-0.96l1.36-6.57h-2.12l0.32-1.53h2.12l0.62-3h1.8l-0.62,3h2.89l-0.31,1.53
				h-2.9l-1.28,6.13c-0.04,0.2-0.07,0.37-0.09,0.52c-0.02,0.15-0.03,0.29-0.03,0.43c0,0.4,0.11,0.68,0.32,0.83
				c0.21,0.16,0.57,0.24,1.08,0.24c0.23,0,0.5-0.02,0.82-0.06c0.32-0.04,0.6-0.09,0.85-0.16L150.91,119.25z"></path>
			<path class="st4 svg-elem-36" d="M159.98,117.38c-0.26,0.38-0.54,0.71-0.84,0.97s-0.6,0.48-0.91,0.64c-0.31,0.17-0.61,0.28-0.92,0.36
				c-0.3,0.07-0.59,0.11-0.87,0.11c-0.48,0-0.9-0.09-1.27-0.26c-0.37-0.17-0.68-0.42-0.93-0.74c-0.25-0.32-0.45-0.71-0.58-1.16
				c-0.13-0.45-0.2-0.96-0.2-1.51c0-0.62,0.05-1.25,0.16-1.87c0.11-0.63,0.27-1.23,0.48-1.81c0.21-0.58,0.47-1.13,0.79-1.63
				c0.31-0.5,0.68-0.94,1.08-1.32c0.41-0.38,0.86-0.67,1.36-0.89c0.5-0.22,1.04-0.32,1.64-0.32c0.58,0,1.1,0.12,1.54,0.36
				c0.45,0.24,0.79,0.58,1.03,1.02h0.05l0.53-1.09h1.45l-1.76,8.42c-0.05,0.29-0.08,0.51-0.08,0.66c0,0.18,0.05,0.32,0.16,0.4
				c0.1,0.08,0.29,0.13,0.55,0.13c0.22,0,0.47-0.02,0.76-0.07l-0.31,1.47c-0.32,0.07-0.68,0.1-1.07,0.1c-0.64,0-1.1-0.15-1.38-0.45
				c-0.28-0.3-0.42-0.81-0.4-1.52H159.98z M161.27,110.69c-0.1-0.14-0.22-0.28-0.35-0.43s-0.29-0.28-0.47-0.4
				c-0.18-0.12-0.37-0.21-0.59-0.29s-0.47-0.11-0.74-0.11c-0.45,0-0.86,0.1-1.23,0.3c-0.37,0.2-0.7,0.46-0.98,0.79
				c-0.28,0.33-0.53,0.7-0.74,1.12c-0.21,0.42-0.38,0.86-0.51,1.31c-0.13,0.45-0.23,0.89-0.3,1.33c-0.07,0.44-0.1,0.84-0.1,1.2
				c0,0.48,0.04,0.88,0.13,1.2c0.09,0.31,0.21,0.56,0.36,0.74c0.15,0.18,0.33,0.31,0.53,0.38c0.2,0.07,0.41,0.11,0.62,0.11
				c0.38,0,0.76-0.1,1.15-0.29c0.39-0.2,0.75-0.48,1.09-0.85c0.34-0.37,0.64-0.83,0.91-1.37c0.27-0.54,0.48-1.16,0.62-1.85
				L161.27,110.69z"></path>
			<path class="st4 svg-elem-37" d="M172.62,109.76c-0.24-0.03-0.47-0.05-0.7-0.05c-0.54,0-1.02,0.09-1.45,0.27c-0.43,0.18-0.8,0.43-1.12,0.74
				c-0.31,0.31-0.57,0.68-0.78,1.09c-0.2,0.42-0.36,0.86-0.45,1.33l-1.26,6.04h-1.79l2.28-10.95h1.46v1.49h0.05
				c0.18-0.25,0.39-0.48,0.61-0.69c0.22-0.22,0.47-0.4,0.75-0.56c0.28-0.16,0.58-0.29,0.9-0.38c0.33-0.09,0.68-0.14,1.07-0.14
				c0.14,0,0.27,0.01,0.4,0.02s0.26,0.03,0.38,0.05L172.62,109.76z"></path>
			<path class="st4 svg-elem-38" d="M178.42,119.25c-0.18,0.05-0.45,0.1-0.8,0.15c-0.35,0.05-0.69,0.07-1.04,0.07c-0.97,0-1.67-0.19-2.12-0.58
				c-0.45-0.39-0.67-0.92-0.67-1.6c0-0.25,0.04-0.57,0.12-0.96l1.36-6.57h-2.12l0.32-1.53h2.12l0.62-3h1.8l-0.62,3h2.89l-0.31,1.53
				h-2.9l-1.28,6.13c-0.04,0.2-0.07,0.37-0.09,0.52c-0.02,0.15-0.03,0.29-0.03,0.43c0,0.4,0.11,0.68,0.32,0.83
				c0.21,0.16,0.57,0.24,1.08,0.24c0.23,0,0.5-0.02,0.82-0.06c0.32-0.04,0.6-0.09,0.85-0.16L178.42,119.25z"></path>
			<path class="st4 svg-elem-39" d="M183.46,111.17c0,0.24,0.05,0.44,0.14,0.62c0.1,0.17,0.22,0.32,0.39,0.45s0.35,0.24,0.56,0.33
				c0.21,0.09,0.44,0.18,0.68,0.27c0.33,0.12,0.66,0.24,1,0.37c0.34,0.13,0.64,0.31,0.92,0.52c0.28,0.21,0.5,0.48,0.68,0.8
				c0.18,0.32,0.27,0.74,0.27,1.24c0,0.61-0.11,1.14-0.34,1.6s-0.54,0.85-0.94,1.16c-0.4,0.31-0.88,0.55-1.44,0.7
				c-0.56,0.16-1.17,0.24-1.83,0.24c-0.59,0-1.19-0.06-1.79-0.19c-0.6-0.13-1.08-0.29-1.42-0.5l0.33-1.5
				c0.41,0.18,0.85,0.33,1.33,0.47c0.48,0.14,1,0.2,1.55,0.2c0.6,0,1.08-0.07,1.45-0.21c0.36-0.14,0.65-0.31,0.85-0.52
				c0.2-0.2,0.34-0.42,0.4-0.64c0.06-0.22,0.1-0.42,0.1-0.58c0-0.3-0.07-0.55-0.21-0.75s-0.32-0.37-0.54-0.51
				c-0.22-0.14-0.48-0.26-0.76-0.36c-0.28-0.1-0.58-0.21-0.88-0.32c-0.28-0.11-0.56-0.23-0.84-0.36c-0.28-0.13-0.52-0.3-0.73-0.5
				c-0.21-0.2-0.38-0.44-0.51-0.73c-0.13-0.29-0.2-0.64-0.2-1.05c0-0.59,0.11-1.1,0.32-1.54c0.21-0.43,0.51-0.8,0.87-1.08
				c0.36-0.29,0.79-0.5,1.26-0.64c0.48-0.14,0.98-0.21,1.51-0.21c0.31,0,0.63,0.02,0.93,0.06c0.31,0.04,0.6,0.1,0.89,0.17
				c0.28,0.07,0.55,0.15,0.8,0.24c0.25,0.09,0.47,0.18,0.66,0.28l-0.31,1.47c-0.46-0.2-0.94-0.37-1.42-0.5
				c-0.49-0.13-0.97-0.2-1.46-0.2c-0.37,0-0.7,0.04-0.98,0.13c-0.28,0.09-0.52,0.21-0.71,0.36c-0.19,0.15-0.34,0.33-0.44,0.54
				S183.46,110.93,183.46,111.17z"></path>
			<path class="st4 svg-elem-40" d="M198.66,109.72c0.47-0.55,1.02-0.99,1.64-1.3c0.63-0.31,1.32-0.47,2.07-0.47c0.45,0,0.87,0.06,1.24,0.18
				c0.38,0.12,0.7,0.29,0.96,0.51c0.27,0.22,0.47,0.5,0.62,0.83c0.15,0.33,0.22,0.71,0.22,1.13c0,0.3-0.02,0.62-0.08,0.96
				c-0.05,0.34-0.11,0.68-0.19,1.04l-1.37,6.59h-1.79l1.39-6.74c0.08-0.39,0.14-0.7,0.16-0.93c0.02-0.23,0.03-0.4,0.03-0.51
				c0-0.28-0.04-0.51-0.13-0.71c-0.08-0.2-0.2-0.35-0.34-0.47s-0.32-0.21-0.52-0.27c-0.2-0.06-0.42-0.09-0.66-0.09
				c-0.52,0-0.99,0.09-1.44,0.28c-0.45,0.19-0.84,0.45-1.19,0.78c-0.35,0.33-0.64,0.72-0.88,1.16c-0.24,0.45-0.41,0.93-0.52,1.45
				l-1.26,6.04h-1.79l3.47-16.68h1.79l-1.51,7.23H198.66z"></path>
			<path class="st4 svg-elem-41" d="M216.75,110.78c0,0.68-0.17,1.26-0.51,1.72c-0.34,0.46-0.83,0.83-1.47,1.12c-0.64,0.28-1.43,0.49-2.36,0.63
				s-1.99,0.22-3.18,0.25c-0.01,0.08-0.01,0.17-0.02,0.25c0,0.08-0.01,0.18-0.01,0.28c0,1,0.25,1.73,0.75,2.19
				c0.5,0.46,1.25,0.69,2.25,0.69c0.26,0,0.53-0.02,0.81-0.05c0.28-0.03,0.56-0.08,0.84-0.15c0.28-0.07,0.54-0.14,0.8-0.22
				c0.26-0.08,0.49-0.18,0.7-0.28l-0.32,1.64c-0.39,0.18-0.85,0.33-1.39,0.45c-0.53,0.12-1.11,0.18-1.73,0.18
				c-0.78,0-1.46-0.11-2.02-0.32c-0.56-0.21-1.03-0.52-1.39-0.9c-0.36-0.39-0.63-0.85-0.81-1.38s-0.26-1.12-0.26-1.76
				c0-0.58,0.06-1.17,0.17-1.75c0.11-0.58,0.29-1.14,0.51-1.67c0.23-0.53,0.51-1.02,0.84-1.48c0.33-0.45,0.72-0.85,1.16-1.18
				c0.44-0.33,0.93-0.6,1.47-0.79c0.54-0.19,1.13-0.29,1.76-0.29c0.45,0,0.89,0.06,1.3,0.17c0.41,0.11,0.77,0.28,1.09,0.52
				c0.32,0.23,0.56,0.53,0.75,0.89C216.66,109.88,216.75,110.3,216.75,110.78z M209.57,112.89c0.85,0,1.6-0.04,2.27-0.13
				c0.67-0.08,1.23-0.21,1.69-0.39c0.46-0.17,0.81-0.4,1.06-0.67c0.25-0.27,0.37-0.61,0.37-1c0-0.16-0.03-0.32-0.1-0.47
				c-0.07-0.15-0.17-0.28-0.31-0.4c-0.14-0.11-0.31-0.21-0.51-0.28c-0.2-0.07-0.44-0.1-0.7-0.1c-0.44,0-0.85,0.08-1.25,0.24
				c-0.4,0.16-0.76,0.39-1.08,0.69c-0.33,0.3-0.61,0.66-0.86,1.08C209.9,111.91,209.71,112.38,209.57,112.89z"></path>
			<path class="st4 svg-elem-42" d="M225.39,109.76c-0.24-0.03-0.47-0.05-0.7-0.05c-0.54,0-1.02,0.09-1.45,0.27c-0.43,0.18-0.8,0.43-1.12,0.74
				c-0.31,0.31-0.57,0.68-0.78,1.09c-0.2,0.42-0.36,0.86-0.45,1.33l-1.26,6.04h-1.79l2.28-10.95h1.46v1.49h0.05
				c0.18-0.25,0.39-0.48,0.61-0.69c0.22-0.22,0.47-0.4,0.75-0.56c0.28-0.16,0.58-0.29,0.9-0.38c0.33-0.09,0.68-0.14,1.07-0.14
				c0.14,0,0.27,0.01,0.4,0.02s0.26,0.03,0.38,0.05L225.39,109.76z"></path>
			<path class="st4 svg-elem-43" d="M235.01,110.78c0,0.68-0.17,1.26-0.51,1.72c-0.34,0.46-0.83,0.83-1.47,1.12c-0.64,0.28-1.43,0.49-2.36,0.63
				s-1.99,0.22-3.18,0.25c-0.01,0.08-0.01,0.17-0.02,0.25c0,0.08-0.01,0.18-0.01,0.28c0,1,0.25,1.73,0.75,2.19
				c0.5,0.46,1.25,0.69,2.25,0.69c0.26,0,0.53-0.02,0.81-0.05c0.28-0.03,0.56-0.08,0.84-0.15c0.28-0.07,0.54-0.14,0.8-0.22
				c0.26-0.08,0.49-0.18,0.7-0.28l-0.32,1.64c-0.39,0.18-0.85,0.33-1.39,0.45c-0.53,0.12-1.11,0.18-1.73,0.18
				c-0.78,0-1.46-0.11-2.02-0.32c-0.56-0.21-1.03-0.52-1.39-0.9c-0.36-0.39-0.63-0.85-0.81-1.38s-0.26-1.12-0.26-1.76
				c0-0.58,0.06-1.17,0.17-1.75c0.11-0.58,0.29-1.14,0.51-1.67c0.23-0.53,0.51-1.02,0.84-1.48c0.33-0.45,0.72-0.85,1.16-1.18
				c0.44-0.33,0.93-0.6,1.47-0.79c0.54-0.19,1.13-0.29,1.76-0.29c0.45,0,0.89,0.06,1.3,0.17c0.41,0.11,0.77,0.28,1.09,0.52
				c0.32,0.23,0.56,0.53,0.75,0.89C234.92,109.88,235.01,110.3,235.01,110.78z M227.83,112.89c0.85,0,1.6-0.04,2.27-0.13
				c0.67-0.08,1.23-0.21,1.69-0.39c0.46-0.17,0.81-0.4,1.06-0.67c0.25-0.27,0.37-0.61,0.37-1c0-0.16-0.03-0.32-0.1-0.47
				c-0.07-0.15-0.17-0.28-0.31-0.4c-0.14-0.11-0.31-0.21-0.51-0.28c-0.2-0.07-0.44-0.1-0.7-0.1c-0.44,0-0.85,0.08-1.25,0.24
				c-0.4,0.16-0.76,0.39-1.08,0.69c-0.33,0.3-0.61,0.66-0.86,1.08C228.17,111.91,227.97,112.38,227.83,112.89z"></path>
			<path class="st4 svg-elem-44" d="M236.34,119.18l0.46-2.25h2.2l-0.46,2.25H236.34z"></path>
		</g>
	</g>
	<g>
		<path class="st4 svg-elem-45" d="M228.89,37.97h-0.81v-6.22h-2.2v-0.72h5.2v0.72h-2.2V37.97z"></path>
		<path class="st4 svg-elem-46" d="M235.2,37.97l-2.35-6.15h-0.04c0.04,0.49,0.07,1.07,0.07,1.74v4.41h-0.74v-6.93h1.21l2.2,5.72h0.04l2.22-5.72
			h1.2v6.93h-0.81V33.5c0-0.51,0.02-1.07,0.07-1.67h-0.04l-2.37,6.14H235.2z"></path>
	</g>
</g>
</svg>
